<svg width="29" height="29" viewBox="0 0 29 29" fill="none" xmlns="http://www.w3.org/2000/svg">
<path d="M28.5323 24.0338V25.9048C26.1792 25.9048 22.9506 23.8062 19.5391 23.8062C17.5291 23.8062 16.2693 24.6356 15.5122 25.4645H14.5L13.2527 19.6533L28.5323 24.0338Z" fill="#1B4145"/>
<path d="M14.4999 19.6533V25.4645H13.4878C12.7307 24.6357 11.4709 23.8062 9.46085 23.8062C6.04944 23.8062 2.82081 25.9048 0.467735 25.9048V24.0338L14.4999 19.6533Z" fill="#609399"/>
<path d="M28.5322 5.19384V24.0339C26.1791 24.0339 22.9505 21.9353 19.5391 21.9353C17.529 21.9353 16.2693 22.7647 15.5122 23.5936H14.5L12.0053 15.003L14.5 6.41246C14.5 6.41246 15.519 3.09525 19.5391 3.09525C22.9505 3.09519 26.1791 5.19384 28.5322 5.19384Z" fill="#00B8DE"/>
<path d="M14.4999 6.41246V23.5935H13.4878C12.7307 22.7641 11.4709 21.9352 9.46085 21.9352C6.04944 21.9352 2.82081 24.0338 0.467735 24.0338V5.19384C2.82081 5.19384 6.04944 3.09525 9.46085 3.09525C13.4809 3.09519 14.4999 6.41246 14.4999 6.41246Z" fill="#00B8DE"/>
<path d="M14.9676 22.2066V8.23974C14.9676 7.98135 14.7583 7.772 14.4999 7.772C14.2415 7.772 14.0322 7.98135 14.0322 8.23974V22.2066C14.0322 22.465 14.2415 22.6743 14.4999 22.6743C14.7583 22.6743 14.9676 22.465 14.9676 22.2066Z" fill="black"/>
<path d="M28.5323 4.72622C27.5434 4.72622 26.3112 4.29949 25.0066 3.84778C23.3543 3.27565 21.4816 2.62723 19.5394 2.62723C17.292 2.62723 15.921 3.61204 15.1666 4.4382C14.8845 4.74729 14.6658 5.057 14.5001 5.33171C14.3343 5.057 14.1156 4.74729 13.8335 4.4382C13.0791 3.61204 11.7081 2.62723 9.46074 2.62723C7.51848 2.62723 5.64577 3.27565 3.99356 3.84778C2.68884 4.29949 1.45663 4.72622 0.467738 4.72622C0.209344 4.72622 0 4.93556 0 5.19395V24.0341C0 24.2925 0.209344 24.5018 0.467738 24.5018C1.61403 24.5018 2.91852 24.0501 4.29953 23.5719C5.88207 23.024 7.67577 22.4029 9.46057 22.4029C10.991 22.4029 12.2298 22.9096 13.1425 23.9091C13.3166 24.0998 13.6126 24.1132 13.8033 23.9391C13.9941 23.7649 14.0075 23.469 13.8333 23.2782C13.0788 22.4521 11.7078 21.4673 9.46057 21.4673C7.51831 21.4673 5.6456 22.1157 3.99339 22.6879C2.88731 23.071 1.83323 23.4359 0.93542 23.5382V5.63847C1.9639 5.54048 3.10294 5.14604 4.29948 4.73171C5.88202 4.18377 7.67571 3.56265 9.46051 3.56265C13.0703 3.56265 14.0148 6.42912 14.0528 6.54959C14.1131 6.74591 14.2945 6.87998 14.4999 6.87998C14.7054 6.87998 14.8867 6.74596 14.9471 6.54959C14.9562 6.51974 15.9065 3.56265 19.5394 3.56265C21.3242 3.56265 23.1179 4.18377 24.7004 4.73171C25.897 5.14609 27.036 5.54048 28.0645 5.63847V23.5382C27.1667 23.4359 26.1126 23.071 25.0065 22.6879C23.3543 22.1158 21.4815 21.4674 19.5393 21.4674C17.2919 21.4674 15.9209 22.4522 15.1665 23.2783C14.9924 23.4692 15.0057 23.765 15.1965 23.9392C15.3873 24.1133 15.6832 24.1 15.8573 23.9092C16.77 22.9097 18.0088 22.4029 19.5393 22.4029C21.3242 22.4029 23.1179 23.024 24.7004 23.572C26.0815 24.0502 27.386 24.5019 28.5322 24.5019C28.7906 24.5019 28.9999 24.2926 28.9999 24.0342V5.19395C29 4.93562 28.7907 4.72622 28.5323 4.72622Z" fill="#00425F"/>
<path d="M28.5323 25.4373C27.5434 25.4373 26.3112 25.0106 25.0066 24.5589C23.3543 23.9867 21.4816 23.3383 19.5394 23.3383C17.4287 23.3383 16.0911 24.207 15.3113 24.997L13.6887 24.9969C12.9088 24.2069 11.5711 23.3383 9.46063 23.3383C7.51836 23.3383 5.64565 23.9867 3.99345 24.5589C2.68884 25.0106 1.45663 25.4373 0.467738 25.4373C0.209344 25.4373 0 25.6467 0 25.905C0 26.1634 0.209344 26.3728 0.467738 26.3728C1.61403 26.3728 2.91852 25.9211 4.29953 25.4429C5.88207 24.8949 7.67577 24.2738 9.46057 24.2738C10.991 24.2738 12.2298 24.7806 13.1425 25.78C13.2311 25.8771 13.3565 25.9323 13.4879 25.9323L15.5119 25.9324C15.6433 25.9324 15.7686 25.8771 15.8573 25.7801C16.77 24.7806 18.0088 24.2738 19.5393 24.2738C21.3241 24.2738 23.1178 24.8949 24.7004 25.4429C26.0814 25.9211 27.386 26.3728 28.5322 26.3728C28.7905 26.3728 28.9999 26.1634 28.9999 25.905C28.9999 25.6467 28.7907 25.4373 28.5323 25.4373Z" fill="#00425F"/>
</svg>
