<svg width="62" height="62" viewBox="0 0 62 62" fill="none" xmlns="http://www.w3.org/2000/svg">
<g clip-path="url(#clip0)">
<path d="M30.6863 61.5792C47.5357 61.5792 61.1949 47.92 61.1949 31.0706C61.1949 14.2212 47.5357 0.562012 30.6863 0.562012C13.8369 0.562012 0.177734 14.2212 0.177734 31.0706C0.177734 47.92 13.8369 61.5792 30.6863 61.5792Z" fill="#F6DA76"/>
<path d="M24.6661 16.142C25.5714 15.2367 25.011 14.2452 24.0194 14.2021C22.3813 14.1158 21.4329 12.3484 22.7692 10.8827C24.235 9.5463 26.0025 10.4947 26.0887 12.1329C26.1318 13.1244 27.1233 13.6848 28.0285 12.7795L30.2272 10.5809C30.8737 9.93429 31.9515 9.93429 32.5982 10.5809L34.7967 12.7795C35.702 13.6848 36.6935 13.1244 36.7366 12.1329C36.8228 10.4947 38.5903 9.5463 40.056 10.9258C41.3923 12.3915 40.4871 14.1589 38.8058 14.2452C37.8144 14.2883 37.2539 15.2798 38.1592 16.1851L40.4008 18.4268C41.0475 19.0734 41.0475 20.1511 40.4008 20.7978L40.3577 20.8409L38.7627 22.4359C38.5903 21.9186 38.2885 21.4013 37.9005 21.0133C36.5211 19.6338 34.4518 19.6769 32.943 21.0995L32.8999 21.1426L32.8568 21.1857C31.4342 22.6946 31.4342 24.8069 32.7705 26.1433C33.1586 26.5313 33.6328 26.833 34.1932 27.0054L32.6412 28.5574C31.9515 29.204 30.8737 29.204 30.2272 28.5574L28.0285 26.3588C27.1233 25.4535 26.1318 26.014 26.0887 27.0054C26.0025 28.6004 24.235 29.5058 22.7692 28.1694C21.4329 26.7037 22.3382 24.9363 23.9763 24.85C24.9679 24.8069 25.5283 23.8154 24.6229 22.9101L22.4244 20.7115C21.7778 20.0649 21.7778 18.9872 22.4244 18.3405L24.6661 16.142Z" fill="#FF9D0A"/>
<path d="M16.7765 37.5242C15.8712 36.6189 14.8797 37.1793 14.8366 38.1708C14.7504 39.8089 12.9829 40.7573 11.5172 39.421C10.1808 37.9552 11.1292 36.1878 12.7673 36.1015C13.7589 36.0585 14.3193 35.0669 13.4139 34.1617L11.2154 31.9631C10.5688 31.3165 10.5688 30.2388 11.2154 29.5921L13.4139 27.3935C14.3193 26.4883 13.7589 25.4968 12.7673 25.4537C11.1292 25.3674 10.1808 23.6 11.5603 22.1342C13.026 20.7979 14.7935 21.7031 14.8797 23.3844C14.9228 24.376 15.9143 24.9364 16.8196 24.031L19.0613 21.7894C19.7079 21.1427 20.7857 21.1427 21.4323 21.7894L21.4754 21.8325L23.0704 23.4275C22.5531 23.6 22.0358 23.9017 21.6478 24.2897C20.2684 25.6692 20.3115 27.7384 21.734 29.2472L21.7771 29.2903L21.8202 29.3334C23.329 30.7561 25.4414 30.7561 26.7777 29.4197C27.1658 29.0317 27.4675 28.5574 27.64 27.997L29.1919 29.549C29.8385 30.2388 29.8385 31.3165 29.1919 31.9631L26.9933 34.1617C26.0881 35.0669 26.6485 36.0585 27.64 36.1015C29.235 36.1878 30.1403 37.9552 28.8039 39.421C27.3382 40.7573 25.5708 39.8521 25.4845 38.2139C25.4414 37.2225 24.4499 36.662 23.5446 37.5673L21.3461 39.7658C20.6994 40.4125 19.6217 40.4125 18.9751 39.7658L16.7765 37.5242Z" fill="#FF9D0A"/>
<path d="M32.6294 32.5533C31.9827 31.9066 30.8619 31.8635 30.2153 32.5533L28.6634 34.1052C29.1807 34.2776 29.698 34.5794 30.0859 34.9674C31.4655 36.3469 31.4223 38.4161 29.9998 39.9249L29.9567 39.968L29.9136 40.0111C28.4047 41.4338 26.2924 41.4338 24.956 40.0973C24.568 39.7094 24.2662 39.2352 24.0938 38.6748L22.4987 40.2698L22.4556 40.3129C21.8091 40.9596 21.8091 42.0373 22.4556 42.6839L24.6974 44.9256C25.6026 45.8308 25.0422 46.8224 24.0507 46.8655C22.4126 46.9517 21.4641 48.7191 22.8005 50.1849C24.2662 51.5213 26.0337 50.616 26.1199 48.9778C26.163 47.9864 27.1545 47.4259 28.0599 48.3312L30.2584 50.5297C30.905 51.1764 31.9827 51.1764 32.6294 50.5297L34.8279 48.3312C35.7333 47.4259 36.7248 47.9864 36.7679 48.9778C36.8541 50.616 38.6216 51.5644 40.0872 50.228C41.4236 48.7622 40.5183 46.9948 38.8371 46.9085C37.8456 46.8655 37.2852 45.8739 38.1904 44.9687L40.389 42.7702C41.0357 42.1235 41.0357 41.0458 40.389 40.3992L38.1904 38.2005C37.2852 37.2953 37.8025 36.3469 38.8371 36.2607C40.4753 36.1745 41.4236 34.407 40.0441 32.9412C38.5785 31.6049 36.811 32.5102 36.7248 34.1483C36.6816 35.1399 35.6902 35.7003 34.7848 34.7949L32.6294 32.5533Z" fill="#FF9D0A"/>
<path d="M33.6478 29.5485C33.0011 30.1951 32.958 31.316 33.6478 31.9626L35.1997 33.5145C35.3721 32.9972 35.6738 32.4799 36.0619 32.092C37.4413 30.7124 39.5106 30.7556 41.0194 32.1782L41.0625 32.2212L41.1056 32.2643C42.5283 33.7732 42.5283 35.8855 41.1919 37.2219C40.8039 37.6099 40.3296 37.9117 39.7692 38.084L41.3643 39.6792L41.4074 39.7223C42.054 40.3689 43.1318 40.3689 43.7784 39.7223L46.0201 37.4805C46.9253 36.5753 47.9168 37.1357 47.9599 38.1272C48.0462 39.7654 49.8136 40.7138 51.2794 39.3773C52.6157 37.9117 51.7105 36.1442 50.0723 36.058C49.0808 36.0149 48.5203 35.0234 49.4257 34.118L51.6242 31.9195C52.2709 31.2729 52.2709 30.1951 51.6242 29.5485L49.4257 27.35C48.5203 26.4446 49.0808 25.4531 50.0723 25.41C51.7105 25.3238 52.6588 23.5563 51.3225 22.0907C49.8567 20.7542 48.0893 21.6596 48.003 23.3408C47.9599 24.3323 46.9685 24.8927 46.0632 23.9875L43.8646 21.7888C43.218 21.1422 42.1402 21.1422 41.4936 21.7888L39.295 23.9875C38.3898 24.8927 37.4413 24.3754 37.3552 23.3408C37.269 21.7027 35.5015 20.7542 34.0357 22.1338C32.6994 23.5994 33.6047 25.3669 35.2428 25.4531C36.2343 25.4963 36.7947 26.4877 35.8894 27.3931L33.6478 29.5485Z" fill="#593F7A"/>
</g>
<defs>
<clipPath id="clip0">
<rect width="61.0172" height="61.0172" fill="white" transform="translate(0.177734 0.562012)"/>
</clipPath>
</defs>
</svg>
