<svg fill="none" height="219" viewBox="0 0 359 219" width="359" xmlns="http://www.w3.org/2000/svg" xmlns:xlink="http://www.w3.org/1999/xlink"><linearGradient id="a" gradientUnits="userSpaceOnUse" x1="63.6418" x2="280.402" y1="24.7819" y2="208.675"><stop offset="0" stop-color="#2beaed"/><stop offset="1" stop-color="#0fccce"/></linearGradient><path d="m96.2241 24.5818h162.1849c8.7 0 15.747 7.0621 15.747 15.7807v162.5475c0 8.718-7.047 15.781-15.747 15.781h-162.1849c-8.6998 0-15.7466-7.063-15.7466-15.781v-162.5475c0-8.7077 7.0468-15.7807 15.7466-15.7807z" fill="url(#a)"/><g stroke-miterlimit="10"><path d="m227.329 65.8971c3.589.534 6.079 3.8798 5.546 7.4871-.533 3.5964-3.871 6.0921-7.471 5.5581-10.961-1.6238-25.675 12.8382-42.541 45.0207-19.238 36.705-37.235 54.993-55.635 53.63-3.622-.272-6.34-3.433-6.079-7.062.272-3.629 3.425-6.353 7.046-6.081 11.201.828 26.078-14.299 43.021-46.612 19.313-36.8468 37.485-54.709 56.113-51.9409z" fill="#fff" stroke="#fff" stroke-width="5.7919"/><path d="m41.5241 34.6083-.6634-17.6879 8.2322 5.6235 9.9177-6.6806s-4.948-27.3764-44.2274-5.1876c-12.22312 6.9095-17.27985 12.533-8.98246 55.5266 0 0 2.20756 15.9223 4.86096 19.704l6.6988-1.8963-2.077-20.0201 8.0037 18.3309 25.0444-7.1057s-2.0988-13.0016-7.0359-22.6683c-.8591-1.6783-4.8283-2.8772-6.2529-7.9121-1.479-5.2421 6.4813-10.0264 6.4813-10.0264z" fill="#000" stroke="#000" stroke-linecap="round" stroke-linejoin="round" stroke-width="2.2009"/><path d="m40.0016 52.1654c-.7395 9.1545 5.6331 27.6925 5.6331 27.6925s12.8104 16.3582 19.1938 11.8355c4.4913-3.1823-2.0118-13.0779-2.0118-13.0779l-3.3711-15.3884s10.1787-4.9042 13.2344-7.3781c1.9357-1.5693-.2501-9.4488-.5981-11.7374-.3479-2.2886 5.1546-8.359 5.1546-8.359-16.1271-9.4378-23.6742-24.7608-23.6742-24.7608" stroke="#000" stroke-linecap="round" stroke-linejoin="round" stroke-width="2"/><path d="m41.5239 34.6083s-15.877 8.5006 3.1428 18.9847" stroke="#000" stroke-linecap="round" stroke-linejoin="round" stroke-width="2.2009"/><path d="m45.6344 79.8687s-19.9007 2.4848-17.9433 8.9256c12.2993 40.5847 54.2974 47.3967 69.0217 45.2167 28.7312-4.261 64.4322-42.4921 58.4512-44.432s-9.232 1.5802-9.232 1.5802c-32.32 23.9328-54.0367 22.2868-54.0367 22.2868s-14.322 2.779-23.0652-6.321" stroke="#000" stroke-linecap="round" stroke-linejoin="round" stroke-width="2"/><path d="m51.6377 35.9378s4.2846 2.0816 7.2969-2.8117" stroke="#000" stroke-linecap="round" stroke-linejoin="round" stroke-width="2"/><path d="m68.8195 46.9995s-2.8166 4.3375-7.1447.6975" stroke="#000" stroke-linecap="round" stroke-linejoin="round" stroke-width="2"/><path d="m116.309 107.114 7.732 15.421" stroke="#000" stroke-linecap="round" stroke-linejoin="round" stroke-width="2"/><path d="m132.632 24.7997c-.609-1.5039.25-3.313.327-5.0677 0 0-.577-5.5036 10.113-2.7463 12.952 3.3458-2.305 8.4788-2.305 8.4788s-6.895 2.3867-8.135-.6648z" stroke="#000" stroke-linecap="round" stroke-linejoin="round" stroke-width="2"/><path d="m62.8057 78.6263s7.2425-3.4003 12.321-3.7382c1.1201-.0762 2.8926-.425 5.0785-1.0462" stroke="#000" stroke-linecap="round" stroke-linejoin="round" stroke-width="2"/><path d="m107.762 24.5818s17.16-8.457 28.089-8.3698" stroke="#000" stroke-linecap="round" stroke-linejoin="round" stroke-width="2"/><path d="m28.9204 92.4888s16.2142 50.7202 48.3163 79.2522" stroke="#000" stroke-linecap="round" stroke-linejoin="round" stroke-width="2"/><path d="m292.294 62.2462c-8.112 23.8999-19.661 51.6688 5.318 56.2898" stroke="#000" stroke-linecap="round" stroke-linejoin="round" stroke-width="2"/><path d="m304.561 80.8494s-2.936 4.3811-9.395 9.5904c0 0 1.174 3.3022 6.089 4.6209" stroke="#000" stroke-linecap="round" stroke-linejoin="round" stroke-width="2"/></g><path d="m312.598 91.3772c.973 0 1.761-.7904 1.761-1.7655s-.788-1.7655-1.761-1.7655-1.762.7904-1.762 1.7655.789 1.7655 1.762 1.7655z" fill="#000"/><path d="m294.589 85.2305c.985 0 1.784-.8002 1.784-1.7873s-.799-1.7873-1.784-1.7873-1.783.8002-1.783 1.7873.798 1.7873 1.783 1.7873z" fill="#000"/><path d="m300.091 105.131s3.23 4.032 7.178-.022" stroke="#000" stroke-linecap="round" stroke-linejoin="round" stroke-miterlimit="10" stroke-width="2"/><path d="m293.784 117.391s-.739 8.861-4.524 9.95l2.414 14.081 22.511-8.119s-2.229-7.542 13.887-24.347" stroke="#000" stroke-linecap="round" stroke-linejoin="round" stroke-miterlimit="10" stroke-width="2"/><path d="m310.412 118.263c-4.883.981-9.69.861-12.8.284" stroke="#000" stroke-linecap="round" stroke-linejoin="round" stroke-miterlimit="10" stroke-width="2"/><path d="m322.961 114.699s44.858-3.367 32.439-34.9939c-6.068-15.4428-15.909-16.2929-15.909-16.2929s-3.883-14.3312-18.716-18.1456c-10.461-2.6918-19.759-3.4002-24.142 7.7051 0 0-8.471-.9263-12.342 11.2143-3.872 12.1407-1.24 29.0983-1.24 29.0983" stroke="#000" stroke-linecap="round" stroke-linejoin="round" stroke-miterlimit="10" stroke-width="1.448"/><path d="m331.824 94.9736s-8.113-12.751-4.589-17.1212c0 0-7.308 1.5803-14.094-4.5118-6.786-6.0922-2.881-10.0264-2.881-10.0264s-12.702 4.065-19.575-3.6291" stroke="#000" stroke-linecap="round" stroke-linejoin="round" stroke-miterlimit="10" stroke-width="1.448"/><path d="m330.813 95.5077s5.6 1.7873 2.914 8.9363c-2.077 5.515-8.102 3.27-8.102 3.27" stroke="#000" stroke-linecap="round" stroke-linejoin="round" stroke-miterlimit="10" stroke-width="1.448"/><path d="m339.491 63.4123s4.002-7.4 10.048-5.3075" stroke="#000" stroke-linecap="round" stroke-linejoin="round" stroke-miterlimit="10" stroke-width="2"/><path d="m336.772 57.429s-13.289-21.2734-35.473-11.1489c0 0-3.502 2.9317-4.655 6.6915 0 0-9.319.109-12.995 12.7619-2.425 8.3263-.968 24.4339-.968 24.4339l9.624-27.9104s14.181 4.3048 17.954 1.0571c0 0-6.59 12.5112 16.976 14.5383 0 0-7.308 7.8903 6.383 19.922 0 0 2.665 2.3976 1.273 5.3186-1.806 3.781-8.929 7.04-11.93 11.606 0 0 27.328-2.441 33.875-19.3658 6.546-16.925-10.886-31.3652-17.345-31.9319z" fill="#000"/><path d="m289.26 127.341s-4.795-4.882-15.365-7.53" stroke="#000" stroke-linecap="round" stroke-linejoin="round" stroke-miterlimit="10" stroke-width="2"/><path d="m314.185 133.303s13.006 8.533 15.855 17.35" stroke="#000" stroke-linecap="round" stroke-linejoin="round" stroke-miterlimit="10" stroke-width="2"/><path d="m307.204 197.472c-7.254 7.192-14.388 12.14-18.302 12.761-13.017 2.049-45.141-18.102-48.034-17.251-2.893.85-23.816-5.101-26.741-8.458-2.925-3.356 5.775-4.206 11.734-4.01 8.178.272 14.626 2.321 14.626 2.321s32.788 13.231 43.206 8.675c0 0 5.73-2.485 6.807-7.28" stroke="#000" stroke-linecap="round" stroke-linejoin="round" stroke-miterlimit="10" stroke-width="2"/><path d="m330.03 150.653c1.272 6.8-.707 14.483-4.415 22.003" stroke="#000" stroke-linecap="round" stroke-linejoin="round" stroke-miterlimit="10" stroke-width="2"/><path d="m325.614 172.667c-3.708 9.722-14.778 27.693-14.778 27.693l-20.336-16.108-4.698-3.716 12.767-11.912" stroke="#000" stroke-linecap="round" stroke-linejoin="round" stroke-miterlimit="10" stroke-width="2"/></svg>